<svg width="44" height="29" viewBox="0 0 44 29" fill="none" xmlns="http://www.w3.org/2000/svg">
<path d="M14.4639 2.41699L17.4487 5.47379L9.93263 12.9899L6.94775 10.005L14.4639 2.41699Z" fill="#F0B90B" stroke="#F0B90B"/>
<path d="M18.9951 6.94824L21.98 10.005L9.93263 22.0524L6.94775 19.0675L18.9951 6.94824Z" fill="#F0B90B" stroke="#F0B90B"/>
<path d="M5.40138 11.4795L8.38625 14.5363L5.40138 17.5212L2.4165 14.5363L5.40138 11.4795Z" fill="#F0B90B" stroke="#F0B90B"/>
<path d="M23.5264 11.4795L26.5112 14.5363L14.4639 26.5837L11.479 23.5988L23.5264 11.4795Z" fill="#F0B90B" stroke="#F0B90B"/>
<path d="M41.0832 14.5003C41.0832 21.174 35.6735 26.5837 28.9998 26.5837C22.3265 26.5837 16.9165 21.174 16.9165 14.5003C16.9165 7.82682 22.3265 2.41699 28.9998 2.41699C35.6735 2.41699 41.0832 7.82682 41.0832 14.5003Z" fill="#1BA27A"/>
<path d="M34.6712 8.50977H23.2295V11.272H27.5692V15.332H30.3315V11.272H34.6712V8.50977Z" fill="#F3F3F3"/>
<path d="M28.9763 15.7653C25.3863 15.7653 22.4758 15.1971 22.4758 14.4962C22.4758 13.7953 25.3862 13.227 28.9763 13.227C32.5663 13.227 35.4767 13.7953 35.4767 14.4962C35.4767 15.1971 32.5663 15.7653 28.9763 15.7653ZM36.2752 14.7077C36.2752 13.8039 33.0074 13.0713 28.9763 13.0713C24.9453 13.0713 21.6772 13.8039 21.6772 14.7077C21.6772 15.5037 24.2112 16.1668 27.5691 16.3137V22.142H30.3311V16.316C33.7148 16.1737 36.2752 15.5078 36.2752 14.7077Z" fill="#F3F3F3"/>
</svg>
