<svg width="44" height="29" viewBox="0 0 44 29" fill="none" xmlns="http://www.w3.org/2000/svg">
<path d="M14.4997 2.41699C21.1737 2.41699 26.583 7.82732 26.583 14.5002C26.583 21.1742 21.1737 26.5835 14.4997 26.5835C7.82683 26.5835 2.4165 21.1737 2.4165 14.5002C2.4165 7.82732 7.82683 2.41699 14.4997 2.41699Z" fill="#F5AC37"/>
<path d="M14.9447 15.3536H19.5361C19.634 15.3536 19.6802 15.3536 19.6873 15.2253C19.7248 14.7582 19.7248 14.2884 19.6873 13.8208C19.6873 13.73 19.6422 13.6925 19.5437 13.6925H10.406C10.2929 13.6925 10.2624 13.73 10.2624 13.836V15.1802C10.2624 15.3536 10.2624 15.3536 10.4435 15.3536H14.9447ZM19.1745 12.1216C19.1876 12.0873 19.1876 12.0498 19.1745 12.0161C19.0979 11.8492 19.0071 11.6898 18.9016 11.5403C18.7428 11.2847 18.5557 11.0493 18.3426 10.8378C18.242 10.71 18.1256 10.5953 17.9951 10.4979C17.3415 9.94168 16.5645 9.54801 15.7293 9.35008C15.3079 9.25547 14.8773 9.21034 14.4455 9.21415H10.3902C10.2771 9.21415 10.2619 9.25928 10.2619 9.3577V12.0384C10.2619 12.1515 10.2619 12.1819 10.4055 12.1819H19.1202C19.1202 12.1819 19.1957 12.1667 19.211 12.1216H19.174H19.1745ZM19.1745 16.9245C19.0462 16.9104 18.9168 16.9104 18.7885 16.9245H10.4136C10.3005 16.9245 10.2624 16.9245 10.2624 17.0757V19.6966C10.2624 19.8173 10.2624 19.8477 10.4136 19.8477H14.2802C14.4651 19.8619 14.65 19.8488 14.831 19.8102C15.3922 19.77 15.9441 19.6482 16.4705 19.4475C16.6619 19.3812 16.8467 19.2947 17.0213 19.1909H17.074C17.9805 18.7195 18.7167 17.9789 19.1811 17.0697C19.1811 17.0697 19.2338 16.9555 19.1745 16.9256V16.9245ZM8.74484 21.2066V21.1614V19.4019V18.8054V17.0306C8.74484 16.9321 8.74484 16.9175 8.62412 16.9175H6.98526C6.89445 16.9175 6.85693 16.9175 6.85693 16.7968V15.3618H8.6089C8.70678 15.3618 8.74484 15.3618 8.74484 15.2335V13.8137C8.74484 13.7229 8.74484 13.7006 8.62412 13.7006H6.98526C6.89445 13.7006 6.85693 13.7006 6.85693 13.5799V12.251C6.85693 12.1678 6.85693 12.1455 6.97765 12.1455H8.60129C8.71439 12.1455 8.74484 12.1455 8.74484 12.002V7.93144C8.74484 7.81072 8.74484 7.78027 8.896 7.78027H14.5597C14.9708 7.79659 15.3791 7.84172 15.7832 7.91621C16.6156 8.07009 17.4155 8.36752 18.1468 8.79219C18.6319 9.07766 19.0783 9.4224 19.4758 9.81934C19.7748 10.1298 20.0445 10.4659 20.2838 10.8236C20.5214 11.1863 20.7188 11.574 20.8738 11.9791C20.8928 12.0846 20.9939 12.1558 21.0994 12.1379H22.4512C22.6246 12.1379 22.6246 12.1379 22.6322 12.3043V13.5429C22.6322 13.6637 22.5871 13.6941 22.4659 13.6941H21.4235C21.318 13.6941 21.2875 13.6941 21.2952 13.83C21.3365 14.2901 21.3365 14.7517 21.2952 15.2117C21.2952 15.34 21.2952 15.3553 21.4393 15.3553H22.6317C22.6844 15.4232 22.6317 15.4912 22.6317 15.5597C22.6393 15.6473 22.6393 15.7359 22.6317 15.8234V16.7375C22.6317 16.8658 22.5942 16.9039 22.4805 16.9039H21.0532C20.9537 16.8848 20.8569 16.9485 20.8341 17.0474C20.4942 17.931 19.9505 18.7233 19.2479 19.3584C18.9913 19.5895 18.7216 19.807 18.4399 20.0076C18.1376 20.1816 17.8434 20.3627 17.5335 20.5062C16.9631 20.7629 16.365 20.9521 15.7511 21.0723C15.1682 21.1767 14.5771 21.224 13.9839 21.2158H8.74266V21.2082L8.74484 21.2066Z" fill="#FEFEFD"/>
<path fill-rule="evenodd" clip-rule="evenodd" d="M28.9998 2.41699C35.6733 2.41699 41.083 7.82672 41.083 14.5003C41.083 21.1732 35.6733 26.5835 28.9998 26.5835C22.3262 26.5835 16.9165 21.1732 16.9165 14.5003C16.9165 7.82672 22.3262 2.41699 28.9998 2.41699Z" fill="#2775CA"/>
<path fill-rule="evenodd" clip-rule="evenodd" d="M26.7348 22.9013C26.7348 23.1856 26.5122 23.347 26.2373 23.2612C22.5839 22.0957 19.9351 18.67 19.9351 14.6279C19.9351 10.5859 22.5839 7.16 26.2373 5.99451C26.5122 5.90924 26.7348 6.07017 26.7348 6.3544V7.05605C26.7348 7.24527 26.5881 7.46798 26.4078 7.52964C23.5173 8.59104 21.4467 11.3679 21.4467 14.6231C21.4467 17.8783 23.5173 20.6556 26.4078 21.7165C26.5881 21.7829 26.7348 22.0007 26.7348 22.1906V22.9013Z" fill="#F3F3F3"/>
<path fill-rule="evenodd" clip-rule="evenodd" d="M29.7533 20.2899C29.7533 20.4986 29.5827 20.6692 29.3743 20.6692H28.6207C28.4123 20.6692 28.2418 20.4986 28.2418 20.2899V19.096C26.5927 18.8734 25.7873 17.9492 25.5693 16.6937C25.5313 16.4801 25.7018 16.286 25.9198 16.286H26.7823C26.9623 16.286 27.114 16.4141 27.1519 16.5938C27.3131 17.3426 27.7443 17.916 29.0662 17.916C30.0423 17.916 30.7343 17.371 30.7343 16.5563C30.7343 15.741 30.3267 15.4331 28.8956 15.196C26.7823 14.9118 25.7825 14.2719 25.7825 12.6135C25.7825 11.3342 26.7493 10.3392 28.2466 10.1259V8.95542C28.2466 8.74685 28.4172 8.57617 28.6255 8.57617H29.3791C29.5875 8.57617 29.7581 8.74685 29.7581 8.95542V10.1591C30.9759 10.3774 31.7482 11.0688 31.9995 12.2154C32.0467 12.4338 31.8762 12.6371 31.6536 12.6371H30.8574C30.6868 12.6371 30.5447 12.5233 30.4927 12.3575C30.2794 11.6282 29.7581 11.3155 28.8529 11.3155C27.8532 11.3155 27.3366 11.7987 27.3366 12.4762C27.3366 13.1917 27.6306 13.5516 29.166 13.7747C31.2411 14.059 32.3123 14.6512 32.3123 16.419C32.3123 17.7599 31.3171 18.845 29.7581 19.096V20.2899H29.7533Z" fill="#F3F3F3"/>
<path fill-rule="evenodd" clip-rule="evenodd" d="M31.7621 23.2615C31.4875 23.3473 31.2646 23.1858 31.2646 22.9016V22.2005C31.2646 21.9919 31.3926 21.7978 31.5916 21.7264C34.4821 20.6649 36.5527 17.8881 36.5527 14.6329C36.5527 11.3777 34.4821 8.60091 31.5916 7.53951C31.4116 7.47305 31.2646 7.25528 31.2646 7.06538V6.36427C31.2646 6.08004 31.4875 5.91431 31.7621 6.00384C35.4155 7.17001 38.0644 10.5957 38.0644 14.6377C38.0598 18.6701 35.4155 22.0912 31.7621 23.2615Z" fill="#F3F3F3"/>
</svg>
