<svg width="44" height="29" viewBox="0 0 44 29" fill="none" xmlns="http://www.w3.org/2000/svg">
<path d="M14.4998 2.41699C21.1739 2.41699 26.5832 7.82736 26.5832 14.5003C26.5832 21.1744 21.1739 26.5837 14.4998 26.5837C7.82687 26.5837 2.4165 21.1738 2.4165 14.5003C2.4165 7.82736 7.82687 2.41699 14.4998 2.41699Z" fill="#F5AC37"/>
<path d="M14.9448 15.3537H19.5362C19.6341 15.3537 19.6803 15.3537 19.6874 15.2254C19.7249 14.7583 19.7249 14.2885 19.6874 13.8209C19.6874 13.73 19.6423 13.6925 19.5438 13.6925H10.406C10.2929 13.6925 10.2625 13.73 10.2625 13.8361V15.1802C10.2625 15.3537 10.2625 15.3537 10.4435 15.3537H14.9448ZM19.1746 12.1216C19.1877 12.0874 19.1877 12.0498 19.1746 12.0161C19.098 11.8492 19.0071 11.6899 18.9017 11.5403C18.7429 11.2848 18.5558 11.0493 18.3427 10.8378C18.2421 10.71 18.1257 10.5953 17.9952 10.498C17.3416 9.9417 16.5646 9.54802 15.7294 9.3501C15.308 9.25548 14.8773 9.21035 14.4456 9.21416H10.3903C10.2772 9.21416 10.2619 9.25929 10.2619 9.35771V12.0384C10.2619 12.1515 10.2619 12.182 10.4055 12.182H19.1203C19.1203 12.182 19.1958 12.1667 19.2111 12.1216H19.1741H19.1746ZM19.1746 16.9246C19.0463 16.9105 18.9169 16.9105 18.7886 16.9246H10.4136C10.3005 16.9246 10.2625 16.9246 10.2625 17.0758V19.6967C10.2625 19.8174 10.2625 19.8478 10.4136 19.8478H14.2803C14.4652 19.862 14.65 19.8489 14.8311 19.8103C15.3923 19.7701 15.9442 19.6483 16.4705 19.4476C16.6619 19.3813 16.8468 19.2948 17.0214 19.191H17.0741C17.9805 18.7195 18.7168 17.979 19.1812 17.0698C19.1812 17.0698 19.2339 16.9556 19.1746 16.9257V16.9246ZM8.74485 21.2067V21.1616V19.402V18.8055V17.0306C8.74485 16.9322 8.74485 16.9175 8.62414 16.9175H6.98526C6.89445 16.9175 6.85693 16.9175 6.85693 16.7968V15.3619H8.60891C8.70679 15.3619 8.74485 15.3619 8.74485 15.2335V13.8138C8.74485 13.723 8.74485 13.7007 8.62414 13.7007H6.98526C6.89445 13.7007 6.85693 13.7007 6.85693 13.58V12.251C6.85693 12.1678 6.85693 12.1455 6.97765 12.1455H8.6013C8.7144 12.1455 8.74485 12.1455 8.74485 12.002V7.93144C8.74485 7.81072 8.74485 7.78027 8.89602 7.78027H14.5598C14.9709 7.79659 15.3792 7.84172 15.7832 7.91621C16.6157 8.0701 17.4156 8.36753 18.1469 8.7922C18.632 9.07767 19.0784 9.42242 19.4759 9.81936C19.7749 10.1298 20.0446 10.4659 20.2839 10.8237C20.5215 11.1864 20.7189 11.5741 20.8739 11.9792C20.8929 12.0846 20.994 12.1559 21.0995 12.1379H22.4513C22.6248 12.1379 22.6248 12.1379 22.6324 12.3043V13.543C22.6324 13.6637 22.5872 13.6942 22.466 13.6942H21.4236C21.3181 13.6942 21.2877 13.6942 21.2953 13.8301C21.3366 14.2901 21.3366 14.7518 21.2953 15.2118C21.2953 15.3401 21.2953 15.3553 21.4394 15.3553H22.6318C22.6846 15.4233 22.6318 15.4913 22.6318 15.5598C22.6394 15.6473 22.6394 15.736 22.6318 15.8235V16.7376C22.6318 16.8659 22.5943 16.9039 22.4807 16.9039H21.0533C20.9538 16.8849 20.857 16.9485 20.8342 17.0475C20.4943 17.9311 19.9506 18.7234 19.248 19.3585C18.9914 19.5896 18.7217 19.8071 18.44 20.0077C18.1377 20.1817 17.8435 20.3628 17.5336 20.5063C16.9632 20.763 16.365 20.9522 15.7511 21.0724C15.1682 21.1768 14.5772 21.2241 13.9839 21.2159H8.74268V21.2083L8.74485 21.2067Z" fill="#FEFEFD"/>
<path d="M29.1732 2.45303V2.46504C29.1852 2.52509 29.1852 2.59716 29.1852 2.66923V11.3294C29.1732 11.3774 29.1371 11.3894 29.1011 11.4134C28.8489 11.5335 28.6086 11.6416 28.3564 11.7497C28.0081 11.9059 27.6477 12.074 27.2994 12.2302L26.0382 12.8067C25.6899 12.9629 25.3416 13.119 25.0052 13.2752C24.5969 13.4674 24.1765 13.6475 23.7681 13.8397C23.4198 13.9959 23.0714 14.164 22.7111 14.3202C22.4228 14.4523 22.1346 14.5724 21.8583 14.7045C21.8343 14.7165 21.8103 14.7285 21.7862 14.7285C21.7742 14.7285 21.7742 14.7285 21.7622 14.7165L22.0865 14.176C22.7111 13.1431 23.3237 12.1221 23.9483 11.0891C24.6089 9.98409 25.2815 8.87905 25.9421 7.77402C26.5547 6.75306 27.1793 5.7321 27.7919 4.71114C28.2363 3.96645 28.6927 3.22175 29.1371 2.47705C29.1491 2.45303 29.1611 2.44101 29.1611 2.41699H29.1732C29.1611 2.429 29.1732 2.44101 29.1732 2.45303Z" fill="#8A92B2"/>
<path d="M36.5479 14.7164L36.5599 14.7284L34.7942 15.7734L29.245 19.0524C29.221 19.0645 29.197 19.0765 29.185 19.0885C29.1489 19.0885 29.1489 19.0524 29.1489 19.0404V18.9323V11.5094C29.1489 11.4733 29.1489 11.4253 29.1609 11.3893C29.1729 11.3412 29.209 11.3532 29.245 11.3652C29.4012 11.4373 29.5693 11.5094 29.7255 11.5814C30.1939 11.7976 30.6623 12.0138 31.1308 12.218C31.5392 12.3982 31.9355 12.5904 32.3439 12.7706C32.7523 12.9507 33.1607 13.1429 33.5691 13.3231C33.9174 13.4792 34.2777 13.6474 34.6261 13.8035C34.9744 13.9597 35.3347 14.1278 35.6831 14.284C35.9593 14.4041 36.2356 14.5362 36.5118 14.6563C36.5118 14.6924 36.5238 14.7044 36.5479 14.7164Z" fill="#454A75"/>
<path d="M29.1727 26.5479C29.1727 26.56 29.1607 26.572 29.1607 26.584H29.1486C29.1486 26.56 29.1246 26.5479 29.1126 26.5239C28.3679 25.4789 27.6232 24.422 26.8785 23.377C26.1218 22.308 25.3531 21.227 24.5964 20.158C23.8637 19.125 23.119 18.08 22.3863 17.047C22.1941 16.7708 22.0019 16.5065 21.8098 16.2303C21.7978 16.2062 21.7857 16.1942 21.7617 16.1582C21.7978 16.1582 21.8218 16.1822 21.8338 16.1942C22.8788 16.8068 23.9117 17.4194 24.9567 18.032C26.1578 18.7406 27.347 19.4493 28.5481 20.158L29.1607 20.5183C29.1847 20.5423 29.1847 20.5663 29.1847 20.5904V26.3798C29.1847 26.4398 29.1847 26.4999 29.1727 26.5479Z" fill="#8A92B2"/>
<path d="M21.75 14.7407V14.7287C22.1344 14.5605 22.5067 14.3804 22.8911 14.2122C23.3835 13.984 23.876 13.7678 24.3685 13.5396C24.7408 13.3714 25.1252 13.1912 25.4975 13.0231C26.05 12.7708 26.5905 12.5306 27.1431 12.2784C27.5154 12.1102 27.8878 11.9421 28.2721 11.7619C28.5364 11.6418 28.8126 11.5217 29.0769 11.4016C29.1009 11.3895 29.1369 11.3775 29.1489 11.3535C29.161 11.3535 29.161 11.3655 29.1489 11.3775V19.0047C29.1489 19.0407 29.1369 19.0768 29.161 19.1008C29.1369 19.1368 29.1129 19.1008 29.1009 19.0888C28.9928 19.0287 28.8847 18.9687 28.7766 18.8966C26.4584 17.5273 24.1282 16.146 21.8101 14.7767C21.798 14.7647 21.774 14.7527 21.75 14.7407Z" fill="#62688F"/>
<path d="M36.524 16.1582H36.536C36.536 16.1822 36.512 16.2062 36.5 16.2303C34.2899 19.3412 32.0799 22.4641 29.8698 25.575C29.6416 25.8993 29.4014 26.2236 29.1731 26.5479C29.1611 26.5359 29.1611 26.5239 29.1611 26.5119V26.4398V20.6144V20.5063C29.6656 20.206 30.1581 19.9177 30.6625 19.6174C32.6084 18.4644 34.5542 17.3233 36.488 16.1702C36.5 16.1822 36.512 16.1702 36.524 16.1582Z" fill="#62688F"/>
<path d="M29.1612 11.3772V11.3532V11.2811V2.56093C29.1612 2.5249 29.1492 2.50088 29.1732 2.46484C31.6115 6.51264 34.0498 10.5484 36.4761 14.5962C36.5001 14.6323 36.5361 14.6803 36.5482 14.7283C36.38 14.6683 36.2239 14.5842 36.0677 14.5121C35.8755 14.4281 35.6713 14.332 35.4792 14.2479C35.359 14.1878 35.2269 14.1398 35.1068 14.0797C34.9026 13.9836 34.6984 13.8996 34.4942 13.8035C34.3741 13.7554 34.254 13.6954 34.1339 13.6353L33.3412 13.275C33.209 13.2149 33.0769 13.1549 32.9328 13.0948L32.3562 12.8426C32.2361 12.7945 32.116 12.7345 31.9959 12.6744L31.2031 12.3141C31.071 12.254 30.9389 12.194 30.7948 12.1339L30.2182 11.8817C30.0861 11.8216 29.966 11.7616 29.8339 11.7015C29.6056 11.5934 29.3774 11.4853 29.1372 11.3892C29.1732 11.3772 29.1612 11.3772 29.1612 11.3772Z" fill="#62688F"/>
</svg>
