<svg width="44" height="29" viewBox="0 0 44 29" fill="none" xmlns="http://www.w3.org/2000/svg">
<path d="M14.6732 2.45303V2.46504C14.6852 2.52509 14.6852 2.59716 14.6852 2.66923V11.3294C14.6732 11.3774 14.6371 11.3894 14.6011 11.4134C14.3489 11.5335 14.1086 11.6416 13.8564 11.7497C13.5081 11.9059 13.1477 12.074 12.7994 12.2302L11.5382 12.8067C11.1899 12.9629 10.8416 13.119 10.5052 13.2752C10.0969 13.4674 9.67647 13.6475 9.26809 13.8397C8.91976 13.9959 8.57143 14.164 8.2111 14.3202C7.92283 14.4523 7.63456 14.5724 7.3583 14.7045C7.33427 14.7165 7.31025 14.7285 7.28623 14.7285C7.27422 14.7285 7.27422 14.7285 7.26221 14.7165L7.58651 14.176C8.2111 13.1431 8.82367 12.1221 9.44826 11.0891C10.1089 9.98409 10.7815 8.87905 11.4421 7.77402C12.0547 6.75306 12.6793 5.7321 13.2919 4.71114C13.7363 3.96645 14.1927 3.22175 14.6371 2.47705C14.6491 2.45303 14.6611 2.44101 14.6611 2.41699H14.6732C14.6611 2.429 14.6732 2.44101 14.6732 2.45303Z" fill="#8A92B2"/>
<path d="M22.0479 14.7164L22.0599 14.7284L20.2942 15.7734L14.745 19.0524C14.721 19.0645 14.697 19.0765 14.685 19.0885C14.6489 19.0885 14.6489 19.0524 14.6489 19.0404V18.9323V11.5094C14.6489 11.4733 14.6489 11.4253 14.6609 11.3893C14.6729 11.3412 14.709 11.3532 14.745 11.3652C14.9012 11.4373 15.0693 11.5094 15.2255 11.5814C15.6939 11.7976 16.1623 12.0138 16.6308 12.218C17.0392 12.3982 17.4355 12.5904 17.8439 12.7706C18.2523 12.9507 18.6607 13.1429 19.0691 13.3231C19.4174 13.4792 19.7777 13.6474 20.1261 13.8035C20.4744 13.9597 20.8347 14.1278 21.1831 14.284C21.4593 14.4041 21.7356 14.5362 22.0118 14.6563C22.0118 14.6924 22.0238 14.7044 22.0479 14.7164Z" fill="#454A75"/>
<path d="M14.6727 26.5479C14.6727 26.56 14.6607 26.572 14.6607 26.584H14.6486C14.6486 26.56 14.6246 26.5479 14.6126 26.5239C13.8679 25.4789 13.1232 24.422 12.3785 23.377C11.6218 22.308 10.8531 21.227 10.0964 20.158C9.36369 19.125 8.61899 18.08 7.8863 17.047C7.69412 16.7708 7.50194 16.5065 7.30976 16.2303C7.29775 16.2062 7.28574 16.1942 7.26172 16.1582C7.29775 16.1582 7.32178 16.1822 7.33379 16.1942C8.37877 16.8068 9.41174 17.4194 10.4567 18.032C11.6578 18.7406 12.847 19.4493 14.0481 20.158L14.6607 20.5183C14.6847 20.5423 14.6847 20.5663 14.6847 20.5904V26.3798C14.6847 26.4398 14.6847 26.4999 14.6727 26.5479Z" fill="#8A92B2"/>
<path d="M7.25 14.7407V14.7287C7.63436 14.5605 8.00671 14.3804 8.39107 14.2122C8.88353 13.984 9.37599 13.7678 9.86846 13.5396C10.2408 13.3714 10.6252 13.1912 10.9975 13.0231C11.55 12.7708 12.0905 12.5306 12.6431 12.2784C13.0154 12.1102 13.3878 11.9421 13.7721 11.7619C14.0364 11.6418 14.3126 11.5217 14.5769 11.4016C14.6009 11.3895 14.6369 11.3775 14.6489 11.3535C14.661 11.3535 14.661 11.3655 14.6489 11.3775V19.0047C14.6489 19.0407 14.6369 19.0768 14.661 19.1008C14.6369 19.1368 14.6129 19.1008 14.6009 19.0888C14.4928 19.0287 14.3847 18.9687 14.2766 18.8966C11.9584 17.5273 9.62823 16.146 7.31006 14.7767C7.29805 14.7647 7.27402 14.7527 7.25 14.7407Z" fill="#62688F"/>
<path d="M22.024 16.1582H22.036C22.036 16.1822 22.012 16.2062 22 16.2303C19.7899 19.3412 17.5799 22.4641 15.3698 25.575C15.1416 25.8993 14.9014 26.2236 14.6731 26.5479C14.6611 26.5359 14.6611 26.5239 14.6611 26.5119V26.4398V20.6144V20.5063C15.1656 20.206 15.6581 19.9177 16.1625 19.6174C18.1084 18.4644 20.0542 17.3233 21.988 16.1702C22 16.1822 22.012 16.1702 22.024 16.1582Z" fill="#62688F"/>
<path d="M14.6612 11.3772V11.3532V11.2811V2.56093C14.6612 2.5249 14.6492 2.50088 14.6732 2.46484C17.1115 6.51264 19.5498 10.5484 21.9761 14.5962C22.0001 14.6323 22.0361 14.6803 22.0482 14.7283C21.88 14.6683 21.7239 14.5842 21.5677 14.5121C21.3755 14.4281 21.1713 14.332 20.9792 14.2479C20.859 14.1878 20.7269 14.1398 20.6068 14.0797C20.4026 13.9836 20.1984 13.8996 19.9942 13.8035C19.8741 13.7554 19.754 13.6954 19.6339 13.6353L18.8412 13.275C18.709 13.2149 18.5769 13.1549 18.4328 13.0948L17.8562 12.8426C17.7361 12.7945 17.616 12.7345 17.4959 12.6744L16.7031 12.3141C16.571 12.254 16.4389 12.194 16.2948 12.1339L15.7182 11.8817C15.5861 11.8216 15.466 11.7616 15.3339 11.7015C15.1056 11.5934 14.8774 11.4853 14.6372 11.3892C14.6732 11.3772 14.6612 11.3772 14.6612 11.3772Z" fill="#62688F"/>
<path d="M22.6699 16.1563L23.3093 11.3526L17.7637 7.50282L22.8306 9.21916L24.0273 7.38315L28.3968 4.67188L38.0281 9.97818L38.5273 18.0744L34.2364 24.0372L30.8448 24.5568L32.5987 21.3464V18.2556L31.3234 15.8418L30.0276 14.9836L28.0344 17.0384V19.2129L26.4787 20.6694L24.5025 20.9088L23.6273 21.4045L22.1913 20.9464L21.593 18.7924L22.6699 17.2778V16.1563Z" fill="#2C2C2C"/>
<path d="M31.5249 7.46163C30.4685 7.24282 29.3128 7.30094 29.3128 7.30094C29.3128 7.30094 28.9333 9.05489 26.5811 9.51646C26.5981 9.51646 29.6889 10.5729 31.5249 7.46163Z" fill="#94A6C3"/>
<path d="M32.4824 23.3773C33.7576 22.3789 34.715 21.0045 35.156 19.4488C35.1765 19.3907 35.3543 19.2882 35.474 19.2095C35.6723 19.0898 35.874 18.9907 35.9116 18.83C35.9902 18.3719 36.0313 17.8932 36.0313 17.4145C36.0313 17.2367 35.8501 17.0555 35.6723 16.8778C35.5321 16.7581 35.3919 16.6179 35.3919 16.5188C35.1936 14.7033 34.356 13.0074 33.0191 11.7732L32.879 11.9134C34.1748 13.1305 35.0124 14.7853 35.1936 16.5393C35.2141 16.7 35.3714 16.8572 35.5321 17.0179C35.6723 17.1376 35.833 17.3188 35.833 17.3974C35.833 17.8556 35.7919 18.3137 35.7133 18.7719C35.6928 18.8505 35.515 18.9326 35.3748 19.0112C35.1765 19.1104 34.9953 19.2095 34.9577 19.3702C34.479 21.066 33.3816 22.543 31.9251 23.5004C32.1849 22.9431 33.002 21.1276 33.4397 20.2079L33.361 17.2573L30.8276 14.8058L29.3916 15.0041L27.8154 17.5581C27.8154 17.5581 28.5539 18.4949 27.5146 19.5924C26.4991 20.6694 25.6991 20.9088 25.6991 20.9088L24.9606 20.5087C25.1794 20.2284 25.6204 19.8113 25.9589 19.5309C26.5367 19.0522 27.1145 19.0112 27.1145 18.4949C27.1385 17.4145 25.9794 17.712 25.9794 17.712L25.5589 18.112L25.3811 19.589L24.5058 20.6865L24.4067 20.666L22.9707 20.348C22.9707 20.348 23.8494 19.8899 23.9896 19.3702C24.1297 18.871 23.7092 17.2162 23.6887 17.1171C23.7092 17.1376 24.1092 17.4761 24.287 18.0334C24.605 17.1547 25.0255 16.317 25.1452 16.2384C25.2649 16.1598 26.8786 15.3016 26.8786 15.3016L26.3418 16.7171L26.7419 16.4982L27.6992 14.146C27.6992 14.146 28.636 13.6878 29.3335 13.6878C30.5882 13.6673 32.4447 12.1322 31.6071 9.37988C31.8464 9.47903 35.9937 11.5544 36.7117 15.623C37.2484 18.7514 35.474 21.6815 32.4824 23.3773Z" fill="#94A6C3"/>
<path d="M27.7368 7.89932C28.1949 7.35912 28.0171 6.5625 28.0171 6.5625L26.6803 8.53867C26.6598 8.53867 27.1555 8.55919 27.7368 7.89932Z" fill="#1B314F"/>
<path d="M23.248 18.6892L23.4087 17.8926C23.4087 17.8926 22.7488 19.0482 22.6907 19.2089C22.6292 19.3901 22.7317 19.7081 22.9882 19.6876C23.248 19.6671 23.566 19.2876 23.566 19.0106C23.566 18.6516 23.248 18.6892 23.248 18.6892Z" fill="#1B314F"/>
<path d="M35.0948 6.00497C35.0948 6.00497 36.0932 6.046 37.1291 6.16567C34.7939 4.32966 32.5819 3.79288 30.7869 3.79288C28.3149 3.79288 26.6396 4.81174 26.537 4.86986L27.3166 3.63218C27.3166 3.63218 24.2053 3.33131 23.1078 6.62381C22.8274 5.92634 22.571 4.90747 22.571 4.90747C22.571 4.90747 20.9538 6.32636 21.7128 8.67864C19.8563 8.00167 17.2066 7.06145 17.104 7.04435C16.9638 7.02384 16.9228 7.08538 16.9228 7.08538C16.9228 7.08538 16.8818 7.1435 17.0014 7.24607C17.2237 7.42044 21.412 10.5146 22.3317 11.113C22.1334 11.831 22.1334 12.1694 22.3317 12.5079C22.612 12.9661 22.6291 13.2054 22.5915 13.5439C22.5505 13.8824 22.1915 16.8159 22.1129 17.1749C22.0342 17.5339 21.1966 18.8092 21.2342 19.1887C21.2752 19.5682 21.7915 21.1819 22.253 21.3631C22.5915 21.4828 23.4292 21.7427 23.9865 21.7427C24.1848 21.7427 24.366 21.7016 24.4446 21.623C24.7831 21.3255 24.8822 21.264 25.1216 21.264C25.1421 21.264 25.1626 21.264 25.1797 21.264C25.2789 21.264 25.3985 21.2845 25.5387 21.2845C25.8567 21.2845 26.2772 21.223 26.5747 20.946C27.0123 20.5084 27.7713 19.9101 28.0106 19.6297C28.3115 19.2502 28.4688 18.7339 28.3902 18.2142C28.3286 17.7356 28.5885 17.315 28.8893 16.8979C29.2688 16.3988 29.9663 15.503 29.9663 15.503C31.3442 16.5355 32.2023 18.1117 32.2023 19.8656C32.2023 22.9769 29.4911 25.4899 26.1404 25.4899C25.6208 25.4899 25.125 25.4318 24.6258 25.3121C26.161 25.8489 27.4568 26.0301 28.5167 26.0301C30.7698 26.0301 31.9664 25.2129 31.9664 25.2129C31.9664 25.2129 31.5493 25.7532 30.8689 26.3686C30.8894 26.3686 30.8894 26.3686 30.8894 26.3686C34.6196 25.8489 36.4351 22.7786 36.4351 22.7786C36.4351 22.7786 36.2949 23.777 36.1171 24.4539C41.0781 20.7238 40.2404 16.0569 40.2199 15.8996C40.2609 15.9577 40.7601 16.556 41.0165 16.8774C41.8166 8.65812 35.0948 6.00497 35.0948 6.00497ZM27.4568 19.1305C27.3781 19.2297 27.0396 19.5306 26.8003 19.7494C26.561 19.9682 26.3011 20.187 26.1028 20.3887C26.0242 20.4674 25.8635 20.5084 25.6242 20.5084C25.5455 20.5084 25.4635 20.5084 25.4054 20.5084C25.3643 20.5084 25.3267 20.5084 25.2857 20.5084C25.2447 20.5084 25.2242 20.5084 25.2071 20.5084C25.1455 20.5084 25.0874 20.5084 25.0258 20.5084C25.3267 20.1084 26.202 19.1921 26.5029 18.9938C26.8619 18.7544 27.0431 18.5151 26.8208 18.098C26.602 17.6775 26.0242 17.78 26.0242 17.78C26.0242 17.78 26.3627 17.6399 26.6636 17.6399C26.284 17.5407 25.8054 17.6399 25.5866 17.8587C25.3472 18.0775 25.3883 18.857 25.2891 19.3528C25.19 19.8725 24.8515 20.1323 24.3318 20.611C24.0514 20.8708 23.8531 20.9494 23.6924 20.9494C23.354 20.8913 22.9539 20.7888 22.6736 20.6896C22.4753 20.4298 22.1744 19.5716 22.0958 19.2126C22.1539 19.0143 22.3932 18.5938 22.5129 18.3544C22.7522 17.8963 22.8924 17.6364 22.9334 17.3971C23.0121 17.0586 23.2719 14.9628 23.371 14.0875C23.6309 14.426 23.9899 14.9867 23.9078 15.3457C24.4856 14.5286 24.0685 13.7285 23.8668 13.4105C23.689 13.0926 23.4497 12.4532 23.648 11.7763C23.8463 11.0993 24.5643 9.22226 24.5643 9.22226C24.5643 9.22226 24.8036 9.6428 25.1421 9.56074C25.4806 9.4821 28.2124 5.37246 28.2124 5.37246C28.2124 5.37246 28.9509 6.98623 28.1713 8.16579C27.3747 9.34192 26.5952 9.56074 26.5952 9.56074C26.5952 9.56074 27.6927 9.75904 28.7081 9.02054C29.1252 9.99837 29.5253 11.0138 29.5458 11.154C29.4842 11.2942 28.6876 13.2088 28.609 13.3285C28.5679 13.3695 28.291 13.4482 28.0893 13.4892C27.7508 13.5883 27.5525 13.6499 27.4704 13.708C27.3303 13.8277 26.6909 15.5816 26.3935 16.4398C26.0345 16.5389 25.6755 16.7407 25.4156 17.1373C25.5558 17.0381 25.9934 16.9766 26.3148 16.939C26.5952 16.9184 27.4499 17.3766 27.6722 18.2348C27.6722 18.2553 27.6722 18.2553 27.6722 18.2758C27.7166 18.5903 27.6175 18.8912 27.4568 19.1305ZM25.5831 19.3699C25.7644 19.11 25.7438 18.6724 25.7644 18.5322C25.7849 18.392 25.8225 18.1322 25.9832 18.0946C26.1439 18.0536 26.5234 18.1151 26.5234 18.392C26.5234 18.6519 26.243 18.71 26.0447 18.8912C25.9011 19.028 25.6208 19.3288 25.5831 19.3699ZM33.5392 15.5577C33.7375 14.5422 33.758 13.6635 33.6999 12.9456C34.476 13.9815 34.9546 15.2397 35.0948 16.5355C35.1153 16.6962 35.2726 16.8535 35.4333 17.0142C35.5735 17.1338 35.7342 17.2945 35.7342 17.3937C35.7342 17.8518 35.6931 18.31 35.6145 18.7715C35.594 18.8297 35.4162 18.9322 35.276 19.0109C35.0777 19.11 34.8965 19.2092 34.8589 19.3699C34.4213 20.905 33.4811 22.2623 32.2263 23.2197C34.0794 21.2845 34.9752 18.0912 33.5392 15.5577ZM32.2844 23.3975C33.5802 22.3991 34.5786 21.0042 35.0162 19.428C35.0367 19.3699 35.2145 19.2673 35.3342 19.1887C35.5325 19.0895 35.7342 18.9698 35.7718 18.8092C35.8504 18.351 35.8915 17.8723 35.8915 17.3937C35.8915 17.2159 35.7102 17.0347 35.5325 16.8569C35.4333 16.7372 35.2726 16.5971 35.2726 16.4979C35.1119 15.0414 34.5341 13.667 33.6383 12.5284C33.2383 10.1351 31.645 9.39663 31.604 9.37611C31.645 9.43766 32.681 10.9318 31.963 12.6857C31.2245 14.4602 29.3304 14.1832 29.1697 14.2003C29.009 14.2003 28.3936 14.997 27.614 16.474C27.5149 16.4329 27.0943 16.3338 26.6157 16.4158C26.9747 15.4175 27.5149 14.002 27.614 13.8824C27.6551 13.8413 27.9525 13.7627 28.1542 13.7046C28.5337 13.6054 28.7115 13.5439 28.7731 13.4652C28.8141 13.4037 29.0124 12.9456 29.2107 12.4669C29.3919 12.4669 29.8501 12.4259 29.8877 12.4054C29.9287 12.3643 30.3082 11.3899 30.3082 11.2702C30.3082 11.1711 29.5287 9.23593 29.2312 8.49743C29.3714 8.33674 29.5116 8.13843 29.6483 7.91962C33.7375 8.36067 36.9308 11.831 36.9308 16.0363C36.9308 19.2673 35.0367 22.0811 32.2844 23.3975Z" fill="#1B314F"/>
<path d="M26.9781 12.6273C27.3576 12.1896 27.1593 11.3725 26.4584 11.2323C26.6396 10.8152 26.8961 9.97754 26.8961 9.97754C26.8961 9.97754 24.8617 13.1675 24.684 13.229C24.5028 13.2905 24.325 12.5897 24.325 12.5897C23.9455 14.0461 24.9643 14.2445 25.084 13.7863C25.6413 13.6427 26.5986 13.0444 26.9781 12.6273Z" fill="#1B314F"/>
<path d="M25.2412 13.4034L26.2772 11.6289C26.2772 11.6289 26.8755 11.9298 26.5746 12.4084C26.1985 12.9657 25.2412 13.4034 25.2412 13.4034Z" fill="#FFD923"/>
<path d="M38.0657 21.6232C37.7649 22.0232 37.4264 22.4403 37.0298 22.8403C39.6009 17.893 37.1494 13.3663 37.0503 13.1885C37.2315 13.3697 37.4093 13.568 37.57 13.7458C39.5427 15.9374 39.7821 19.2299 38.0657 21.6232Z" fill="#D82122"/>
<path d="M40.4588 15.2607C39.5596 12.8468 38.2844 10.792 35.4739 8.9389C32.7627 7.14392 29.8497 7.2841 29.689 7.30461C29.6685 7.30461 29.6479 7.30461 29.6479 7.30461C29.7471 7.26359 29.8463 7.24307 29.9454 7.22598C30.5642 7.02768 31.3609 6.86698 32.1609 6.76783C34.2773 6.46354 36.4107 7.18153 37.8672 8.72009C37.8878 8.7406 37.8878 8.7406 37.9083 8.76111C39.5631 10.5151 40.4212 12.7067 40.4588 15.2607Z" fill="#D82122"/>
<path d="M34.8347 5.38654C31.8636 4.82924 29.9489 5.10618 28.5711 5.62587C28.5301 5.46518 28.3899 5.14721 28.2702 4.88736C27.8565 5.38654 27.4155 5.98487 27.1385 6.36438C26.3795 6.88407 26.0615 7.38325 26.0615 7.38325C26.4992 5.88572 27.7779 4.77112 29.3335 4.49076C29.7712 4.41212 30.2498 4.37109 30.7695 4.37109C32.144 4.39161 33.5184 4.73009 34.8347 5.38654Z" fill="#D82122"/>
<path d="M23.8462 9.21525C21.5145 9.13661 22.2906 6.42192 22.3316 6.26465C22.3316 6.28516 22.4889 8.39811 23.8462 9.21525Z" fill="#D82122"/>
<path d="M26.1404 4.33008C24.3454 5.40706 24.7044 7.97816 24.7044 7.97816C22.988 5.36946 26.0002 4.39162 26.1404 4.33008Z" fill="#D82122"/>
<path d="M23.1895 9.93348C23.3091 10.0326 23.4288 10.2138 23.2886 10.4737C23.21 10.6139 23.0903 10.5933 22.9091 10.5147C22.6698 10.395 21.2338 9.55739 19.938 8.69922C21.415 9.21891 22.9091 9.77621 23.1484 9.89587C23.1484 9.89587 23.1689 9.91638 23.1895 9.93348Z" fill="#2C2C2C"/>
</svg>
